<?xml version="1.0" standalone="no"?>
<!DOCTYPE svg PUBLIC "-//W3C//DTD SVG 20010904//EN"
 "http://www.w3.org/TR/2001/REC-SVG-20010904/DTD/svg10.dtd">
<svg version="1.0" xmlns="http://www.w3.org/2000/svg"
 width="256.000000pt" height="256.000000pt" viewBox="0 0 256.000000 256.000000"
 preserveAspectRatio="xMidYMid meet">

<g transform="translate(0.000000,256.000000) scale(0.100000,-0.100000)"
fill="#000000" stroke="none">
<path d="M476 2298 c-18 -29 -479 -1514 -474 -1529 2 -6 114 -127 248 -270
l245 -259 292 0 c335 0 300 -12 327 110 57 255 55 251 77 229 16 -16 34 -19
127 -19 l107 0 129 -160 129 -160 291 2 291 3 147 715 c81 393 147 722 147
730 1 15 -305 587 -330 616 -9 12 -60 14 -293 14 -154 0 -287 -4 -294 -8 -11
-7 -23 -44 -78 -239 l-15 -53 -63 0 c-67 0 -77 -6 -92 -53 -9 -28 -13 -25
-163 162 l-153 191 -294 0 c-294 0 -294 0 -308 -22z m523 -65 c0 -5 -15 -53
-33 -108 l-32 -100 -233 -3 c-219 -2 -233 -1 -228 15 2 10 17 60 33 111 l28
92 233 0 c128 0 233 -3 232 -7z m1151 3 c0 -2 -25 -112 -55 -244 -30 -133 -55
-243 -55 -246 0 -4 -40 -6 -89 -6 l-89 0 -6 38 c-3 20 -8 78 -12 127 -3 50
-11 96 -16 103 -7 8 -41 12 -103 12 l-92 0 30 110 30 110 229 0 c125 0 228 -2
228 -4z m-928 -223 c117 -145 135 -172 131 -196 -3 -15 -8 -27 -12 -27 -3 0
-50 52 -104 115 l-98 115 -60 0 c-32 0 -59 3 -59 7 0 22 53 162 59 158 4 -2
69 -80 143 -172z m1135 -102 c64 -119 116 -225 115 -237 -1 -18 -243 -1212
-257 -1273 -5 -21 -27 4 -159 182 l-153 207 43 187 c23 104 94 412 156 686 94
413 115 494 125 480 7 -9 65 -114 130 -232z m-1325 -95 c-30 -104 -33 -127
-23 -140 12 -14 73 -16 513 -16 471 0 499 -1 494 -17 -2 -10 -44 -189 -91
-398 -48 -209 -89 -390 -92 -403 l-5 -22 -238 0 -238 0 76 295 c62 243 73 297
62 310 -16 20 -222 22 -238 3 -5 -7 -24 -67 -41 -133 -18 -66 -34 -128 -37
-137 -5 -16 -20 -18 -124 -18 l-118 0 36 135 c44 170 47 165 -98 165 -74 0
-110 -4 -117 -12 -5 -7 -16 -38 -25 -68 -9 -30 -26 -88 -38 -127 l-22 -73
-114 0 -114 0 0 59 c0 35 -5 63 -12 69 -7 6 -50 16 -96 22 -69 10 -82 15 -77
29 23 73 138 444 160 514 l26 87 313 0 313 0 -35 -124z m732 92 c3 -18 7 -63
9 -100 l5 -68 -184 0 -183 0 9 28 c5 15 18 60 30 100 l21 72 144 0 144 0 5
-32z m-583 -60 c20 -24 48 -58 63 -75 l28 -33 -90 0 -89 0 21 75 c11 41 23 75
26 75 3 0 22 -19 41 -42z m-303 -584 c1 -1 -7 -40 -19 -88 l-21 -86 60 -87
c33 -49 95 -138 137 -199 l76 -110 -36 -160 c-20 -87 -38 -160 -40 -162 -7 -8
-385 410 -385 426 0 11 60 220 147 516 4 16 9 14 41 -15 20 -19 38 -35 40 -35z
m466 23 l35 -43 -29 -114 c-17 -62 -32 -115 -34 -117 -7 -7 -66 85 -66 103 0
19 51 214 56 214 1 0 19 -19 38 -43z m-1036 -53 l52 -7 0 -50 c0 -30 -13 -91
-32 -148 -43 -131 -45 -129 128 -129 74 0 134 -4 134 -9 0 -4 -5 -22 -11 -40
l-11 -31 -234 0 c-129 0 -234 3 -234 8 0 4 28 98 62 210 46 149 66 202 78 202
8 0 39 -3 68 -6z m332 -165 c0 -7 -5 -29 -12 -50 l-11 -39 -109 0 c-59 0 -108
1 -108 3 0 2 7 24 16 50 l16 47 104 0 c71 0 104 -4 104 -11z m595 -88 l56 -80
-17 -65 -16 -65 46 -58 46 -58 -48 -6 c-26 -3 -53 -2 -59 4 -10 7 -250 350
-277 395 -6 9 17 12 103 12 l110 0 56 -79z m-461 -449 l189 -207 -214 -3 -214
-3 -148 153 c-81 84 -171 179 -198 211 l-51 57 224 0 223 -1 189 -207z m1213
11 c80 -109 150 -204 156 -210 7 -10 -35 -13 -206 -13 l-215 0 -163 202 c-90
111 -165 206 -167 210 -2 4 98 8 222 8 l226 0 147 -197z"/>
</g>
</svg>
